<svg width="262" height="262" viewBox="0 0 262 262" fill="none" xmlns="http://www.w3.org/2000/svg">
<g opacity="0.05" filter="url(#filter0_d_1_572)">
<rect x="84.1691" y="74" width="93.8066" height="93.8066" rx="46.9033" fill="#FF7A59"/>
</g>
<path d="M138.7 116.051V111.686C139.277 111.416 139.765 110.988 140.108 110.452C140.451 109.916 140.635 109.293 140.638 108.656V108.556C140.638 106.699 139.133 105.195 137.277 105.195H137.176C135.32 105.195 133.815 106.699 133.815 108.556V108.656C133.818 109.293 134.002 109.916 134.345 110.452C134.688 110.988 135.176 111.416 135.753 111.686V116.051C134.095 116.305 132.534 116.992 131.227 118.043L119.256 108.719C119.341 108.411 119.386 108.094 119.391 107.776C119.392 107.027 119.172 106.294 118.756 105.67C118.341 105.047 117.751 104.56 117.059 104.272C116.368 103.984 115.606 103.908 114.871 104.053C114.136 104.198 113.461 104.557 112.93 105.086C112.4 105.615 112.038 106.29 111.89 107.024C111.743 107.759 111.817 108.52 112.103 109.213C112.388 109.905 112.873 110.498 113.495 110.915C114.118 111.332 114.85 111.555 115.599 111.556C116.254 111.553 116.897 111.378 117.464 111.048L129.252 120.221C127.085 123.495 127.143 127.762 129.398 130.976L125.813 134.563C125.523 134.47 125.221 134.421 124.917 134.417C123.2 134.418 121.809 135.811 121.809 137.528C121.809 139.245 123.201 140.636 124.918 140.637C126.635 140.637 128.028 139.246 128.029 137.529C128.025 137.225 127.976 136.923 127.883 136.633L131.43 133.085C134.599 135.525 138.952 135.735 142.342 133.612C145.731 131.489 147.442 127.481 146.63 123.565C145.817 119.648 142.654 116.651 138.7 116.051V116.051ZM137.23 130.407C136.574 130.424 135.922 130.311 135.312 130.072C134.701 129.833 134.145 129.475 133.675 129.018C133.205 128.56 132.832 128.014 132.577 127.41C132.322 126.806 132.191 126.157 132.191 125.502C132.191 124.846 132.322 124.197 132.577 123.593C132.832 122.989 133.205 122.443 133.675 121.985C134.145 121.528 134.701 121.17 135.312 120.931C135.922 120.693 136.574 120.579 137.23 120.596C139.87 120.689 141.964 122.856 141.965 125.498C141.966 128.14 139.875 130.309 137.234 130.404" fill="#FF7A59"/>
<defs>
<filter id="filter0_d_1_572" x="0.169067" y="0" width="261.807" height="261.807" filterUnits="userSpaceOnUse" color-interpolation-filters="sRGB">
<feFlood flood-opacity="0" result="BackgroundImageFix"/>
<feColorMatrix in="SourceAlpha" type="matrix" values="0 0 0 0 0 0 0 0 0 0 0 0 0 0 0 0 0 0 127 0" result="hardAlpha"/>
<feOffset dy="10"/>
<feGaussianBlur stdDeviation="42"/>
<feColorMatrix type="matrix" values="0 0 0 0 0.419608 0 0 0 0 0.482353 0 0 0 0 0.611765 0 0 0 0.1 0"/>
<feBlend mode="normal" in2="BackgroundImageFix" result="effect1_dropShadow_1_572"/>
<feBlend mode="normal" in="SourceGraphic" in2="effect1_dropShadow_1_572" result="shape"/>
</filter>
</defs>
</svg>
