<svg width="20" height="20" viewBox="0 0 20 20" fill="none" xmlns="http://www.w3.org/2000/svg">
<path d="M8.54541 2C7.25085 2 5.98536 2.38388 4.90898 3.1031C3.83259 3.82233 2.99365 4.84458 2.49824 6.0406C2.00284 7.23662 1.87322 8.55269 2.12577 9.82238C2.37833 11.0921 3.00172 12.2584 3.91711 13.1737C4.8325 14.0891 5.99878 14.7125 7.26847 14.9651C8.53815 15.2177 9.85422 15.088 11.0502 14.5926C12.2462 14.0972 13.2685 13.2583 13.9877 12.1819C14.7069 11.1055 15.0908 9.83999 15.0908 8.54543C15.0907 6.80951 14.4011 5.14472 13.1736 3.91723C11.9461 2.68975 10.2813 2.00011 8.54541 2V2Z" stroke="#4C70F0" stroke-width="2" stroke-miterlimit="10"/>
<path d="M13.0908 13.4297L17.6621 18.0009" stroke="#4C70F0" stroke-width="2" stroke-miterlimit="10" stroke-linecap="round"/>
</svg>
