<svg width="327" height="327" viewBox="0 0 327 327" fill="none" xmlns="http://www.w3.org/2000/svg">
<g filter="url(#filter0_d_1_556)">
<rect x="50.1691" y="40" width="226.662" height="226.662" rx="113.331" fill="white"/>
</g>
<path d="M135.122 165.208C135.122 170.726 130.615 175.234 125.097 175.234C119.579 175.234 115.071 170.726 115.071 165.208C115.071 159.69 119.579 155.183 125.097 155.183H135.122V165.208Z" fill="#E01E5A"/>
<path d="M140.181 165.208C140.181 159.69 144.688 155.183 150.206 155.183C155.724 155.183 160.232 159.69 160.232 165.208V190.311C160.232 195.829 155.724 200.336 150.206 200.336C144.688 200.336 140.181 195.829 140.181 190.311V165.208Z" fill="#E01E5A"/>
<path d="M150.202 124.945C144.684 124.945 140.177 120.437 140.177 114.92C140.177 109.402 144.684 104.894 150.202 104.894C155.72 104.894 160.228 109.402 160.228 114.92V124.945H150.202Z" fill="#36C5F0"/>
<path d="M150.2 130C155.717 130 160.225 134.507 160.225 140.025C160.225 145.543 155.717 150.051 150.2 150.051H125.097C119.579 150.051 115.071 145.543 115.071 140.025C115.071 134.507 119.579 130 125.097 130H150.2Z" fill="#36C5F0"/>
<path d="M190.45 140.025C190.45 134.507 194.958 130 200.476 130C205.994 130 210.501 134.507 210.501 140.025C210.501 145.543 205.994 150.051 200.476 150.051H190.45V140.025Z" fill="#2EB67D"/>
<path d="M185.396 140.022C185.396 145.54 180.888 150.048 175.37 150.048C169.852 150.048 165.345 145.54 165.345 140.022V114.92C165.345 109.402 169.852 104.894 175.37 104.894C180.888 104.894 185.396 109.402 185.396 114.92V140.022Z" fill="#2EB67D"/>
<path d="M175.378 180.284C180.896 180.284 185.403 184.792 185.403 190.31C185.403 195.828 180.896 200.335 175.378 200.335C169.86 200.335 165.352 195.828 165.352 190.31V180.284H175.378Z" fill="#ECB22E"/>
<path d="M175.381 175.234C169.863 175.234 165.356 170.726 165.356 165.208C165.356 159.69 169.863 155.183 175.381 155.183H200.484C206.002 155.183 210.509 159.69 210.509 165.208C210.509 170.726 206.002 175.234 200.484 175.234H175.381Z" fill="#ECB22E"/>
<defs>
<filter id="filter0_d_1_556" x="0.169067" y="0" width="326.662" height="326.662" filterUnits="userSpaceOnUse" color-interpolation-filters="sRGB">
<feFlood flood-opacity="0" result="BackgroundImageFix"/>
<feColorMatrix in="SourceAlpha" type="matrix" values="0 0 0 0 0 0 0 0 0 0 0 0 0 0 0 0 0 0 127 0" result="hardAlpha"/>
<feOffset dy="10"/>
<feGaussianBlur stdDeviation="25"/>
<feColorMatrix type="matrix" values="0 0 0 0 0.278431 0 0 0 0 0.32549 0 0 0 0 0.419608 0 0 0 0.05 0"/>
<feBlend mode="normal" in2="BackgroundImageFix" result="effect1_dropShadow_1_556"/>
<feBlend mode="normal" in="SourceGraphic" in2="effect1_dropShadow_1_556" result="shape"/>
</filter>
</defs>
</svg>
