<svg width="114" height="19" viewBox="0 0 114 19" fill="none" xmlns="http://www.w3.org/2000/svg">
<path fill-rule="evenodd" clip-rule="evenodd" d="M28.0461 12.5844C28.0461 12.8119 28.0461 13.0849 28.0006 13.4489H18.0813C18.2633 14.359 18.7183 15.1325 19.4464 15.6785C20.1744 16.2245 21.0844 16.4975 22.1764 16.4975C23.587 16.4975 24.7245 16.0425 25.589 15.1325L27.1816 16.9525C26.6356 17.635 25.9075 18.1356 25.043 18.4996C24.1785 18.8636 23.1775 19.0001 22.0854 19.0001C20.6749 19.0001 19.4919 18.7271 18.3998 18.1811C17.3533 17.635 16.5343 16.8615 15.9428 15.8605C15.3513 14.8595 15.0782 13.7674 15.0782 12.4934C15.0782 11.2649 15.3512 10.1728 15.8973 9.17182C16.4433 8.17079 17.2168 7.39726 18.2178 6.85125C19.2189 6.30524 20.3564 6.03223 21.5849 6.03223C22.8134 6.03223 23.9055 6.30524 24.9065 6.85125C25.862 7.39726 26.6356 8.17079 27.1816 9.12631C27.7731 10.1728 28.0461 11.3104 28.0461 12.5844ZM21.6759 8.44379C20.7204 8.44379 19.9469 8.7168 19.2644 9.26282C18.6273 9.80883 18.2178 10.5823 18.0813 11.4924H25.2705C25.134 10.5823 24.77 9.85433 24.0875 9.26282C23.4505 8.7168 22.6315 8.44379 21.6759 8.44379Z" fill="#22283B"/>
<path fill-rule="evenodd" clip-rule="evenodd" d="M49.2961 12.5844C49.2961 12.8119 49.2961 13.0849 49.2506 13.4489H39.3313C39.5133 14.359 39.9683 15.1325 40.6964 15.6785C41.4244 16.2245 42.3344 16.4975 43.4264 16.4975C44.837 16.4975 45.9745 16.0425 46.839 15.1325L48.4316 16.9525C47.8856 17.635 47.1575 18.1356 46.293 18.4996C45.4285 18.8636 44.4275 19.0001 43.3354 19.0001C41.9249 19.0001 40.7419 18.7271 39.6498 18.1811C38.6033 17.635 37.7843 16.8615 37.1928 15.8605C36.6013 14.8595 36.3282 13.7674 36.3282 12.4934C36.3282 11.2649 36.6013 10.1728 37.1473 9.17182C37.6933 8.17079 38.4668 7.39726 39.4678 6.85125C40.4689 6.30524 41.5609 6.03223 42.8349 6.03223C44.0635 6.03223 45.1555 6.30524 46.1565 6.85125C47.112 7.39726 47.8856 8.17079 48.4316 9.12631C49.0231 10.1728 49.2961 11.3104 49.2961 12.5844ZM42.9259 8.44379C41.9704 8.44379 41.1969 8.7168 40.5144 9.26282C39.8773 9.80883 39.4678 10.5823 39.3313 11.4924H46.5205C46.384 10.5823 46.02 9.85433 45.383 9.26282C44.7005 8.7168 43.8815 8.44379 42.9259 8.44379Z" fill="#22283B"/>
<path fill-rule="evenodd" clip-rule="evenodd" d="M53.5712 8.07822C54.4357 6.75869 55.9373 6.07617 58.0758 6.07617V8.80625C57.8028 8.80625 57.5753 8.80625 57.3933 8.80625C56.2558 8.80625 55.3458 9.12475 54.7087 9.80727C54.0717 10.4898 53.7532 11.4453 53.7532 12.7193V18.862H50.7501V6.21268H53.5712V8.07822Z" fill="#22283B"/>
<path fill-rule="evenodd" clip-rule="evenodd" d="M70.087 4.30336C69.5409 4.30336 69.0859 4.12136 68.7219 3.75735C68.3579 3.39334 68.1759 2.93833 68.1759 2.43782C68.1759 1.8918 68.3579 1.48229 68.7219 1.11828C69.0859 0.754269 69.5409 0.572266 70.087 0.572266C70.633 0.572266 71.088 0.754273 71.452 1.07278C71.816 1.39129 71.998 1.8463 71.998 2.34682C71.998 2.89283 71.816 3.34784 71.452 3.71185C71.088 4.12137 70.633 4.30336 70.087 4.30336Z" fill="#22283B"/>
<path fill-rule="evenodd" clip-rule="evenodd" d="M68.59 6.21289H71.5475V18.8622H68.59V6.21289Z" fill="#22283B"/>
<path fill-rule="evenodd" clip-rule="evenodd" d="M97.2531 12.5844C97.2531 12.8119 97.2531 13.0849 97.2076 13.4489H87.2883C87.4703 14.359 87.9253 15.1325 88.6533 15.6785C89.3813 16.2245 90.2914 16.4975 91.3834 16.4975C92.7939 16.4975 93.9315 16.0425 94.796 15.1325L96.3885 16.9525C95.8425 17.635 95.1145 18.1356 94.25 18.4996C93.3855 18.8636 92.3844 19.0001 91.2924 19.0001C89.8819 19.0001 88.6988 18.7271 87.6068 18.1811C86.5603 17.635 85.7413 16.8615 85.1497 15.8605C84.5582 14.8595 84.2852 13.7674 84.2852 12.4934C84.2852 11.2649 84.5582 10.1728 85.1042 9.17182C85.6502 8.17079 86.4238 7.39726 87.4248 6.85125C88.4258 6.30524 89.5179 6.03223 90.7919 6.03223C92.0204 6.03223 93.1124 6.30524 94.1135 6.85125C95.069 7.39726 95.8425 8.17079 96.3885 9.12631C96.98 10.1728 97.2531 11.3104 97.2531 12.5844ZM90.8374 8.44379C89.8819 8.44379 89.1083 8.7168 88.4258 9.26282C87.7888 9.80883 87.3793 10.5823 87.2428 11.4924H94.432C94.2955 10.5823 93.9315 9.85433 93.2945 9.26282C92.6119 8.7168 91.7929 8.44379 90.8374 8.44379Z" fill="#22283B"/>
<path fill-rule="evenodd" clip-rule="evenodd" d="M101.666 8.07822C102.531 6.75869 104.032 6.07617 106.171 6.07617V8.89725C105.898 8.85175 105.67 8.80625 105.488 8.80625C104.351 8.80625 103.441 9.12475 102.804 9.80727C102.167 10.4898 101.848 11.4453 101.848 12.7193V18.862H98.8907V6.21268H101.712V8.07822H101.666Z" fill="#22283B"/>
<path fill-rule="evenodd" clip-rule="evenodd" d="M37.1479 3.53022C37.1024 3.53022 34.1903 3.53022 34.0993 3.53022C33.0073 3.62122 32.4158 4.25824 32.4158 5.57777V6.35129H35.8284V8.71736H32.5523V18.9096H29.5947V14.405V8.67186V6.3058V5.98729V5.53228C29.5947 4.16724 30.0042 3.12071 30.7778 2.30169C31.5513 1.52817 32.6888 1.11865 34.0993 1.11865C34.1448 1.11865 37.1024 1.11865 37.1479 1.11865V3.53022Z" fill="#22283B"/>
<path fill-rule="evenodd" clip-rule="evenodd" d="M10.3008 13.5402C10.5283 13.4492 10.7558 13.4492 10.9378 13.3582C11.9844 12.9032 12.8034 12.2206 13.3949 11.3106C13.9409 10.4006 14.2594 9.35405 14.2594 8.17102C14.2594 6.94249 13.9864 5.89596 13.3949 5.03144C12.8034 4.16691 12.0299 3.4844 10.9378 2.98388C9.89132 2.52887 8.61728 2.25586 7.16124 2.25586H0.33606V18.8183H3.43014V4.84944H7.02474C8.38978 4.84944 9.39081 5.12244 10.0733 5.71396C10.7558 6.25997 11.1198 7.07899 11.1198 8.17102C11.1198 9.21755 10.7558 10.0366 10.0733 10.6281C9.39081 11.1741 8.34427 11.4926 7.02474 11.4926H4.93169L10.9378 18.8638H14.6234L10.3008 13.5402Z" fill="#22283B"/>
<path fill-rule="evenodd" clip-rule="evenodd" d="M62.4905 8.07822C63.3551 6.75869 64.8566 6.07617 66.9952 6.07617V8.80625C66.7222 8.80625 66.4946 8.80625 66.3126 8.80625C65.1751 8.80625 64.2651 9.12475 63.6281 9.80727C62.991 10.4898 62.6725 11.4453 62.6725 12.7193V18.862H59.715V6.21268H62.536V8.07822H62.4905Z" fill="#22283B"/>
<path fill-rule="evenodd" clip-rule="evenodd" d="M107.311 1.61917H106.219V1.11865H108.995V1.61917H107.903V4.39475H107.311V1.61917Z" fill="#22283B"/>
<path fill-rule="evenodd" clip-rule="evenodd" d="M112.726 4.39426L112.68 2.2102L111.634 4.03025H111.361L110.269 2.25569V4.39426H109.723V1.11816H110.223L111.497 3.30222L112.771 1.11816H113.272V4.39426H112.726Z" fill="#22283B"/>
<path fill-rule="evenodd" clip-rule="evenodd" d="M84.0571 16.5001V18.8661H73.1368V17.0006L80.0985 8.58286H73.2733V6.2168H83.8751V8.08234L76.9134 16.5001H84.0571Z" fill="#22283B"/>
</svg>
