<svg width="123" height="123" viewBox="0 0 123 123" fill="none" xmlns="http://www.w3.org/2000/svg">
<path opacity="0.05" d="M0.429871 61.4005C0.429871 27.6339 27.8031 0.260742 61.5696 0.260742C95.3362 0.260742 122.709 27.6339 122.709 61.4005C122.709 95.167 95.3362 122.54 61.5696 122.54C27.8031 122.54 0.429871 95.167 0.429871 61.4005Z" fill="#BF2519"/>
<path d="M39.3136 60.307C38.2682 61.9825 37.8268 67.259 38.1898 70.7611C38.3176 71.9168 38.5267 72.8809 38.8316 73.4559C39.2498 74.2516 39.9525 74.7249 40.754 74.754C41.268 74.7801 41.5874 74.693 51.2516 71.5858C51.2516 71.5858 55.5465 70.2151 55.564 70.2064C56.6355 69.9335 57.3557 68.949 57.4254 67.6916C57.4951 66.4023 56.8301 65.264 55.7324 64.8516C55.7324 64.8516 52.7036 63.6174 52.6978 63.6174C42.3134 59.3342 41.8459 59.1657 41.3232 59.1599C40.5217 59.128 39.8102 59.5316 39.3136 60.307Z" fill="#BF2519"/>
<path d="M62.545 92.2211C62.7134 91.7332 62.7338 91.3992 62.7628 81.2472C62.7628 81.2472 62.786 76.7606 62.7889 76.717C62.8586 75.6165 62.1472 74.6146 60.9827 74.1674C59.7834 73.7057 58.4911 73.9903 57.7652 74.8934C57.7652 74.8934 55.6453 77.4082 55.6395 77.4082C48.3652 85.9544 48.0603 86.3493 47.8831 86.8546C47.7757 87.1508 47.7321 87.4702 47.767 87.7868C47.8105 88.2398 48.0167 88.687 48.3565 89.1052C50.0436 91.1089 58.134 94.0854 60.7184 93.644C61.6158 93.4814 62.2691 92.9761 62.545 92.2211Z" fill="#BF2519"/>
<path d="M78.9581 88.6865C81.3974 87.7137 86.7174 80.9446 87.092 78.3398C87.2227 77.4338 86.9381 76.6526 86.3137 76.1532C85.9043 75.8454 85.5936 75.7263 75.9351 72.5552C75.9351 72.5552 71.6983 71.1555 71.6431 71.1294C70.6181 70.7316 69.4478 71.1004 68.6608 72.0703C67.8419 73.0663 67.7199 74.3818 68.3733 75.3749L70.0779 78.1511C75.8103 87.461 76.2487 88.1202 76.6611 88.4425C77.3 88.9449 78.1131 89.0262 78.9581 88.6865Z" fill="#BF2519"/>
<path d="M73.9657 64.7181C84.9425 62.0581 85.3665 61.9187 85.7992 61.6341C86.4642 61.1869 86.7981 60.4377 86.7401 59.5259C86.7401 59.4968 86.7459 59.4649 86.7401 59.4329C86.4584 56.7381 81.7366 49.7281 79.4106 48.5897C78.5859 48.1948 77.7611 48.2209 77.0758 48.6797C76.6518 48.9556 76.3411 49.3738 70.4636 57.4118C70.4636 57.4118 67.8094 61.0272 67.7775 61.062C67.0776 61.9129 67.066 63.1325 67.7513 64.1779C68.4599 65.2611 69.6563 65.7896 70.754 65.4847C70.754 65.4847 70.7104 65.5631 70.6988 65.5776C71.2389 65.3744 72.2059 65.1362 73.9657 64.7181Z" fill="#BF2519"/>
<path d="M62.9489 55.6548C62.7602 51.3047 61.4505 31.9356 61.2966 31.0383C61.0759 30.2252 60.4399 29.6444 59.5281 29.415C56.7258 28.7209 46.0162 31.7207 44.0328 33.7679C43.3939 34.4329 43.1587 35.2518 43.3504 35.9778C43.664 36.6196 56.932 57.4959 56.932 57.4959C58.8922 60.6757 60.4922 60.182 61.0178 60.0165C61.5376 59.8567 63.129 59.3631 62.9489 55.6548Z" fill="#BF2519"/>
</svg>
