<svg width="112" height="112" viewBox="0 0 112 112" fill="none" xmlns="http://www.w3.org/2000/svg">
<path opacity="0.05" d="M0.854858 56.1543C0.854858 25.52 25.6889 0.686035 56.3231 0.686035C86.9574 0.686035 111.791 25.52 111.791 56.1543C111.791 86.7886 86.9574 111.623 56.3231 111.623C25.6889 111.623 0.854858 86.7886 0.854858 56.1543Z" fill="#2681FF"/>
<path d="M48.3157 50.6665C47.7327 50.0436 46.8242 50.0789 46.4279 50.8714L36.8669 69.994C36.6896 70.3484 36.7085 70.7692 36.9168 71.1062C37.125 71.4432 37.493 71.6484 37.8892 71.6483H51.2043C51.6402 71.6585 52.041 71.4107 52.2268 71.0163C55.0979 65.0801 53.3584 56.0543 48.3157 50.6665Z" fill="#2681FF"/>
<path d="M55.3313 33.2745C49.9837 41.7472 50.3365 51.1309 53.8588 58.1758L60.2793 71.0167C60.4729 71.4039 60.8686 71.6485 61.3015 71.6485H74.6165C75.0127 71.6485 75.3806 71.4434 75.5889 71.1063C75.7972 70.7693 75.816 70.3485 75.6388 69.9942C75.6388 69.9942 57.7261 34.1637 57.2755 33.2672C56.8726 32.4647 55.8493 32.4537 55.3313 33.2745Z" fill="#2681FF"/>
</svg>
