<svg width="15" height="11" viewBox="0 0 15 11" fill="none" xmlns="http://www.w3.org/2000/svg">
<path fill-rule="evenodd" clip-rule="evenodd" d="M12.9845 0.574926C13.5817 0.739609 14.0521 1.22484 14.2117 1.84105C14.5018 2.95785 14.5018 5.28807 14.5018 5.28807C14.5018 5.28807 14.5018 7.61821 14.2117 8.73509C14.0521 9.3513 13.5817 9.83654 12.9845 10.0013C11.9021 10.3005 7.56151 10.3005 7.56151 10.3005C7.56151 10.3005 3.22091 10.3005 2.13846 10.0013C1.5412 9.83654 1.07084 9.3513 0.91121 8.73509C0.621216 7.61821 0.621216 5.28807 0.621216 5.28807C0.621216 5.28807 0.621216 2.95785 0.91121 1.84105C1.07084 1.22484 1.5412 0.739609 2.13846 0.574926C3.22091 0.275635 7.56151 0.275635 7.56151 0.275635C7.56151 0.275635 11.9021 0.275635 12.9845 0.574926ZM6.26184 3.32642V7.68506L9.73199 5.50582L6.26184 3.32642Z" fill="white"/>
</svg>
