<svg width="15" height="12" viewBox="0 0 15 12" fill="none" xmlns="http://www.w3.org/2000/svg">
<path d="M7.25557 3.55752L7.28566 4.05366L6.78418 3.99291C4.95881 3.76003 3.36412 2.97025 2.01014 1.64382L1.3482 0.985666L1.17769 1.47169C0.816632 2.5551 1.04731 3.69928 1.79952 4.46881C2.2007 4.89407 2.11044 4.95483 1.4184 4.70169C1.17769 4.62069 0.967074 4.55994 0.947015 4.59031C0.876809 4.66119 1.11752 5.5826 1.30808 5.94712C1.56884 6.45339 2.10041 6.94953 2.68212 7.24317L3.17356 7.47605L2.59185 7.48618C2.0302 7.48618 2.01014 7.4963 2.07032 7.70894C2.27091 8.36709 3.06324 9.06574 3.94583 9.3695L4.56766 9.58214L4.02607 9.90615C3.22371 10.3719 2.28094 10.6352 1.33817 10.6554C0.886838 10.6656 0.515747 10.7061 0.515747 10.7364C0.515747 10.8377 1.73935 11.4047 2.45144 11.6275C4.58772 12.2856 7.12519 12.0021 9.03079 10.8782C10.3848 10.0783 11.7388 8.48859 12.3706 6.94953C12.7116 6.12937 13.0526 4.63081 13.0526 3.91191C13.0526 3.44614 13.0827 3.38539 13.6444 2.82849C13.9753 2.50448 14.2862 2.15009 14.3464 2.04883C14.4467 1.85645 14.4367 1.85645 13.9252 2.02858C13.0727 2.33235 12.9523 2.29184 13.3736 1.8362C13.6845 1.51219 14.0556 0.924913 14.0556 0.752781C14.0556 0.722405 13.9051 0.773032 13.7346 0.864161C13.5541 0.965415 13.1529 1.1173 12.852 1.20842L12.3104 1.38056L11.819 1.04642C11.5482 0.864161 11.1671 0.661653 10.9665 0.6009C10.455 0.459144 9.67268 0.479395 9.21132 0.641402C7.95763 1.09705 7.1653 2.27159 7.25557 3.55752Z" fill="white"/>
</svg>
