<svg width="15" height="15" viewBox="0 0 15 15" fill="none" xmlns="http://www.w3.org/2000/svg">
<path d="M14.3807 13.4563C14.3807 14.2221 13.7509 14.8443 12.9838 14.8443H1.89706C1.12996 14.8443 0.500122 14.2221 0.500122 13.4563V2.3518C0.500122 1.58598 1.12996 0.963745 1.89706 0.963745H12.9838C13.759 0.963745 14.3807 1.58598 14.3807 2.3518V13.4563Z" fill="white"/>
<path d="M5.01428 4.35404C5.01428 4.86459 4.63476 5.27941 4.00493 5.27941C3.41547 5.27941 3.03595 4.86459 3.03595 4.35404C3.03595 3.83551 3.43162 3.43665 4.03723 3.43665C4.63476 3.43665 5.0062 3.83551 5.01428 4.35404ZM3.0844 11.9485V6.00535H4.94968V11.9405H3.0844V11.9485Z" fill="#37364D"/>
<path d="M6.07201 7.90406C6.07201 7.16216 6.04778 6.54791 6.02356 6.01342H7.6466L7.73542 6.83509H7.76772C8.00996 6.4442 8.61557 5.87781 9.62492 5.87781C10.8523 5.87781 11.7728 6.6915 11.7728 8.43854V11.9486H9.90754V8.65393C9.90754 7.8881 9.64107 7.36957 8.96279 7.36957C8.446 7.36957 8.13916 7.72058 8.00189 8.0636C7.95344 8.18326 7.93729 8.35877 7.93729 8.52629V11.9486H6.07201V7.90406Z" fill="#37364D"/>
</svg>
