<svg width="293" height="293" viewBox="0 0 293 293" fill="none" xmlns="http://www.w3.org/2000/svg">
<g opacity="0.05" filter="url(#filter0_d_1_552)">
<rect x="50.1691" y="40" width="192.427" height="192.427" rx="96.2134" fill="#FF4A00"/>
</g>
<path d="M154.804 135.92C154.805 138.438 154.351 140.936 153.463 143.293C151.105 144.18 148.607 144.635 146.088 144.636H146.059C143.465 144.632 140.98 144.158 138.686 143.294C137.798 140.937 137.343 138.439 137.344 135.92V135.89C137.343 133.372 137.797 130.875 138.684 128.518C141.041 127.629 143.54 127.174 146.059 127.175H146.089C148.608 127.174 151.106 127.629 153.463 128.518C154.351 130.874 154.805 133.372 154.804 135.889V135.92L154.804 135.92ZM180.509 130.085H160.125L174.538 115.672C173.406 114.083 172.145 112.591 170.765 111.212V111.211C169.386 109.833 167.894 108.572 166.306 107.441L151.893 121.855V101.471C149.976 101.149 148.035 100.986 146.092 100.985H146.056C144.078 100.986 142.142 101.154 140.254 101.471V121.855L125.841 107.441C124.252 108.572 122.762 109.833 121.384 111.213L121.376 111.218C119.999 112.596 118.739 114.085 117.609 115.672L132.024 130.085H111.641C111.641 130.085 111.154 133.913 111.154 135.893V135.917C111.154 137.896 111.322 139.836 111.641 141.725H132.024L117.609 156.138C119.877 159.32 122.659 162.102 125.841 164.37L140.254 149.955V170.34C142.169 170.66 144.107 170.823 146.049 170.825H146.098C148.04 170.823 149.978 170.661 151.893 170.34V149.955L166.307 164.37C167.895 163.239 169.386 161.977 170.765 160.599L170.769 160.596C172.146 159.217 173.407 157.726 174.538 156.138L160.123 141.725H180.509C180.826 139.84 180.992 137.905 180.994 135.93V135.88C180.992 133.904 180.826 131.97 180.509 130.085Z" fill="#FF4A00"/>
<defs>
<filter id="filter0_d_1_552" x="0.169067" y="0" width="292.427" height="292.427" filterUnits="userSpaceOnUse" color-interpolation-filters="sRGB">
<feFlood flood-opacity="0" result="BackgroundImageFix"/>
<feColorMatrix in="SourceAlpha" type="matrix" values="0 0 0 0 0 0 0 0 0 0 0 0 0 0 0 0 0 0 127 0" result="hardAlpha"/>
<feOffset dy="10"/>
<feGaussianBlur stdDeviation="25"/>
<feColorMatrix type="matrix" values="0 0 0 0 0.278431 0 0 0 0 0.32549 0 0 0 0 0.419608 0 0 0 0.15 0"/>
<feBlend mode="normal" in2="BackgroundImageFix" result="effect1_dropShadow_1_552"/>
<feBlend mode="normal" in="SourceGraphic" in2="effect1_dropShadow_1_552" result="shape"/>
</filter>
</defs>
</svg>
