<svg width="288" height="288" viewBox="0 0 288 288" fill="none" xmlns="http://www.w3.org/2000/svg">
<g filter="url(#filter0_d_1_575)">
<rect x="84.1691" y="74" width="119.094" height="119.094" rx="59.5468" fill="white"/>
</g>
<path d="M118.345 150.734L127.9 143.415C132.976 150.04 138.37 153.094 144.373 153.094C150.344 153.094 155.585 150.076 160.433 143.503L170.124 150.646C163.13 160.125 154.438 165.133 144.373 165.133C134.341 165.133 125.564 160.157 118.345 150.734Z" fill="url(#paint0_linear_1_575)"/>
<path d="M144.338 118.92L127.331 133.575L119.47 124.458L144.374 102.996L169.082 124.474L161.185 133.559L144.338 118.92Z" fill="url(#paint1_linear_1_575)"/>
<defs>
<filter id="filter0_d_1_575" x="0.169067" y="0" width="287.094" height="287.094" filterUnits="userSpaceOnUse" color-interpolation-filters="sRGB">
<feFlood flood-opacity="0" result="BackgroundImageFix"/>
<feColorMatrix in="SourceAlpha" type="matrix" values="0 0 0 0 0 0 0 0 0 0 0 0 0 0 0 0 0 0 127 0" result="hardAlpha"/>
<feOffset dy="10"/>
<feGaussianBlur stdDeviation="42"/>
<feColorMatrix type="matrix" values="0 0 0 0 0.278431 0 0 0 0 0.32549 0 0 0 0 0.419608 0 0 0 0.1 0"/>
<feBlend mode="normal" in2="BackgroundImageFix" result="effect1_dropShadow_1_575"/>
<feBlend mode="normal" in="SourceGraphic" in2="effect1_dropShadow_1_575" result="shape"/>
</filter>
<linearGradient id="paint0_linear_1_575" x1="118.345" y1="158.185" x2="170.124" y2="158.185" gradientUnits="userSpaceOnUse">
<stop stop-color="#8930FD"/>
<stop offset="1" stop-color="#49CCF9"/>
</linearGradient>
<linearGradient id="paint1_linear_1_575" x1="119.47" y1="123.793" x2="169.082" y2="123.793" gradientUnits="userSpaceOnUse">
<stop stop-color="#FF02F0"/>
<stop offset="1" stop-color="#FFC800"/>
</linearGradient>
</defs>
</svg>
