<svg width="152" height="151" viewBox="0 0 152 151" fill="none" xmlns="http://www.w3.org/2000/svg">
<path opacity="0.03" d="M0.294495 75.4995C0.294495 33.871 34.041 0.124512 75.6695 0.124512C117.298 0.124512 151.044 33.871 151.044 75.4995C151.044 117.128 117.298 150.875 75.6695 150.875C34.041 150.875 0.294495 117.128 0.294495 75.4995Z" fill="#B92B27"/>
<path fill-rule="evenodd" clip-rule="evenodd" d="M73.7855 91.5468C75.3789 91.5468 76.9877 91.3225 78.5037 90.9177L78.4986 90.9202C80.3034 94.0142 82.714 96.6543 87.2647 96.6543C94.7855 96.6543 95.6183 89.7265 95.4636 88.0584H92.7719C92.6326 89.3114 91.7973 90.9048 89.7347 90.9048C87.8422 90.9048 86.4809 89.5899 85.166 87.6123C89.2525 84.4462 92.0629 79.5501 92.0629 73.5247C92.0629 62.6908 83.142 55.3994 73.7829 55.3994C64.5785 55.3994 55.57 62.7475 55.57 73.5247C55.57 84.2039 64.5811 91.5468 73.7855 91.5468ZM70.413 81.9119C73.6848 81.9119 75.3607 84.7557 76.789 87.566C75.8763 87.8342 74.8811 87.9528 73.7828 87.9528C66.873 87.9528 63.8822 83.0747 63.8822 73.5248C63.8822 63.9233 66.873 58.9936 73.7828 58.9936C80.7957 58.9936 83.7968 63.9233 83.7968 73.5248C83.7968 77.369 83.2966 80.4732 82.2395 82.7679C80.4553 80.0813 78.2097 77.9671 73.8343 77.9671C71.0214 77.9671 68.8325 78.8901 67.4815 80.0555L68.5901 82.2728C69.1625 82.015 69.789 81.9119 70.413 81.9119Z" fill="#B92B27"/>
</svg>
