<svg width="324" height="324" viewBox="0 0 324 324" fill="none" xmlns="http://www.w3.org/2000/svg">
<g opacity="0.1" filter="url(#filter0_d_1_545)">
<rect x="84.8292" y="74.2812" width="155" height="155" rx="77.5" fill="#00A1E0"/>
</g>
<path d="M156.125 132.714C158.4 130.343 161.568 128.873 165.072 128.873C169.73 128.873 173.793 131.47 175.957 135.326C177.838 134.485 179.92 134.018 182.11 134.018C190.51 134.018 197.321 140.888 197.321 149.362C197.321 157.837 190.51 164.707 182.11 164.707C181.103 164.707 180.1 164.607 179.113 164.408C177.208 167.807 173.576 170.104 169.408 170.104C167.663 170.104 166.013 169.701 164.543 168.984C162.612 173.528 158.111 176.714 152.865 176.714C147.403 176.714 142.747 173.258 140.96 168.41C140.179 168.576 139.37 168.663 138.54 168.663C132.036 168.663 126.763 163.336 126.763 156.763C126.763 152.359 129.132 148.513 132.652 146.456C131.927 144.789 131.524 142.948 131.524 141.013C131.524 133.455 137.66 127.328 145.228 127.328C149.672 127.328 153.621 129.441 156.125 132.714Z" fill="#00A1E0"/>
<path d="M136.982 152.936C136.938 153.052 136.998 153.076 137.012 153.096C137.145 153.192 137.279 153.262 137.415 153.339C138.135 153.721 138.814 153.833 139.525 153.833C140.972 153.833 141.871 153.063 141.871 151.823V151.799C141.871 150.653 140.857 150.237 139.905 149.937L139.781 149.897C139.064 149.663 138.444 149.462 138.444 148.99V148.965C138.444 148.561 138.806 148.263 139.367 148.263C139.99 148.263 140.73 148.47 141.206 148.734C141.206 148.734 141.346 148.824 141.397 148.688C141.425 148.616 141.667 147.967 141.692 147.896C141.719 147.82 141.671 147.764 141.622 147.734C141.078 147.403 140.326 147.177 139.548 147.177L139.403 147.178C138.079 147.178 137.154 147.978 137.154 149.125V149.149C137.154 150.358 138.174 150.75 139.13 151.023L139.284 151.071C139.98 151.285 140.58 151.469 140.58 151.959V151.983C140.58 152.431 140.19 152.765 139.561 152.765C139.317 152.765 138.538 152.76 137.697 152.228C137.595 152.169 137.536 152.126 137.457 152.079C137.416 152.052 137.313 152.007 137.268 152.144L136.982 152.936ZM158.17 152.936C158.126 153.052 158.186 153.076 158.2 153.096C158.333 153.192 158.468 153.262 158.603 153.339C159.323 153.721 160.003 153.833 160.713 153.833C162.16 153.833 163.059 153.063 163.059 151.823V151.799C163.059 150.653 162.045 150.237 161.093 149.937L160.969 149.897C160.252 149.663 159.633 149.462 159.633 148.99V148.965C159.633 148.561 159.994 148.263 160.555 148.263C161.178 148.263 161.918 148.47 162.395 148.734C162.395 148.734 162.534 148.824 162.586 148.688C162.614 148.616 162.855 147.967 162.88 147.896C162.907 147.82 162.859 147.764 162.81 147.734C162.266 147.403 161.514 147.177 160.736 147.177L160.591 147.178C159.267 147.178 158.342 147.978 158.342 149.125V149.149C158.342 150.358 159.362 150.75 160.318 151.023L160.472 151.071C161.168 151.285 161.77 151.469 161.77 151.959V151.983C161.77 152.431 161.379 152.765 160.749 152.765C160.505 152.765 159.726 152.76 158.885 152.228C158.783 152.169 158.723 152.128 158.647 152.079C158.621 152.061 158.498 152.014 158.456 152.144L158.17 152.936ZM172.635 150.509C172.635 151.209 172.504 151.761 172.247 152.151C171.993 152.537 171.608 152.725 171.071 152.725C170.533 152.725 170.151 152.538 169.9 152.151C169.647 151.762 169.518 151.209 169.518 150.509C169.518 149.809 169.647 149.258 169.9 148.872C170.151 148.49 170.533 148.304 171.071 148.304C171.608 148.304 171.993 148.49 172.248 148.872C172.504 149.258 172.635 149.809 172.635 150.509ZM173.843 149.21C173.725 148.809 173.54 148.455 173.293 148.161C173.047 147.865 172.736 147.628 172.366 147.455C171.997 147.283 171.561 147.196 171.071 147.196C170.581 147.196 170.144 147.283 169.776 147.455C169.406 147.628 169.094 147.865 168.847 148.161C168.602 148.456 168.417 148.81 168.297 149.21C168.18 149.609 168.12 150.045 168.12 150.509C168.12 150.972 168.18 151.409 168.297 151.807C168.417 152.207 168.601 152.561 168.848 152.856C169.094 153.152 169.407 153.388 169.776 153.556C170.145 153.724 170.581 153.809 171.071 153.809C171.561 153.809 171.996 153.724 172.366 153.556C172.735 153.388 173.047 153.152 173.294 152.856C173.54 152.562 173.725 152.208 173.843 151.807C173.962 151.408 174.021 150.971 174.021 150.509C174.021 150.046 173.962 149.609 173.843 149.21ZM183.764 152.538C183.724 152.42 183.61 152.464 183.61 152.464C183.435 152.532 183.248 152.594 183.049 152.625C182.846 152.656 182.624 152.672 182.386 152.672C181.801 152.672 181.337 152.498 181.004 152.155C180.671 151.811 180.484 151.255 180.486 150.503C180.488 149.819 180.652 149.304 180.949 148.912C181.243 148.522 181.692 148.322 182.29 148.322C182.788 148.322 183.168 148.38 183.566 148.505C183.566 148.505 183.662 148.546 183.707 148.422C183.812 148.128 183.891 147.918 184.003 147.596C184.036 147.504 183.957 147.465 183.929 147.454C183.772 147.393 183.402 147.293 183.123 147.251C182.862 147.211 182.556 147.19 182.216 147.19C181.709 147.19 181.256 147.276 180.869 147.449C180.483 147.621 180.156 147.858 179.897 148.153C179.637 148.449 179.44 148.803 179.309 149.203C179.178 149.602 179.112 150.04 179.112 150.503C179.112 151.505 179.382 152.315 179.916 152.909C180.45 153.504 181.253 153.806 182.301 153.806C182.92 153.806 183.555 153.681 184.012 153.501C184.012 153.501 184.099 153.458 184.061 153.357L183.764 152.538ZM185.878 149.837C185.935 149.448 186.043 149.125 186.209 148.873C186.459 148.49 186.841 148.28 187.378 148.28C187.914 148.28 188.269 148.491 188.523 148.873C188.692 149.125 188.766 149.463 188.795 149.837H185.878ZM189.946 148.982C189.843 148.595 189.589 148.204 189.422 148.025C189.159 147.742 188.901 147.544 188.646 147.433C188.312 147.29 187.912 147.196 187.474 147.196C186.964 147.196 186.5 147.281 186.124 147.458C185.747 147.635 185.431 147.876 185.183 148.177C184.934 148.476 184.747 148.833 184.629 149.238C184.509 149.641 184.449 150.081 184.449 150.544C184.449 151.015 184.511 151.455 184.635 151.85C184.759 152.248 184.958 152.598 185.228 152.889C185.496 153.181 185.842 153.411 186.256 153.57C186.667 153.729 187.167 153.811 187.74 153.81C188.922 153.806 189.544 153.543 189.8 153.401C189.845 153.376 189.888 153.332 189.834 153.205L189.567 152.457C189.527 152.345 189.413 152.386 189.413 152.386C189.12 152.495 188.704 152.69 187.734 152.688C187.1 152.687 186.63 152.5 186.335 152.207C186.033 151.908 185.885 151.468 185.859 150.846L189.949 150.85C189.949 150.85 190.056 150.848 190.067 150.744C190.071 150.7 190.208 149.904 189.946 148.982ZM153.125 149.837C153.183 149.448 153.29 149.125 153.456 148.873C153.706 148.49 154.088 148.28 154.625 148.28C155.161 148.28 155.516 148.491 155.772 148.873C155.939 149.125 156.013 149.463 156.042 149.837H153.125ZM157.192 148.982C157.089 148.595 156.836 148.204 156.669 148.025C156.406 147.742 156.148 147.544 155.893 147.433C155.559 147.29 155.16 147.196 154.721 147.196C154.212 147.196 153.747 147.281 153.371 147.458C152.995 147.635 152.678 147.876 152.43 148.177C152.181 148.476 151.994 148.833 151.876 149.238C151.757 149.641 151.696 150.081 151.696 150.544C151.696 151.015 151.758 151.455 151.882 151.85C152.007 152.248 152.206 152.598 152.475 152.889C152.743 153.181 153.089 153.411 153.503 153.57C153.914 153.729 154.414 153.811 154.988 153.81C156.169 153.806 156.791 153.543 157.047 153.401C157.092 153.376 157.136 153.332 157.081 153.205L156.815 152.457C156.774 152.345 156.66 152.386 156.66 152.386C156.368 152.495 155.953 152.69 154.981 152.688C154.348 152.687 153.877 152.5 153.583 152.207C153.28 151.908 153.132 151.468 153.106 150.846L157.196 150.85C157.196 150.85 157.303 150.848 157.314 150.744C157.318 150.7 157.455 149.904 157.192 148.982ZM144.285 152.515C144.125 152.388 144.103 152.355 144.049 152.273C143.969 152.147 143.927 151.968 143.927 151.741C143.927 151.381 144.046 151.123 144.292 150.949C144.289 150.95 144.644 150.643 145.478 150.654C146.064 150.662 146.588 150.748 146.588 150.748V152.608H146.589C146.589 152.608 146.069 152.719 145.484 152.754C144.652 152.805 144.282 152.514 144.285 152.515ZM145.912 149.642C145.747 149.63 145.531 149.623 145.274 149.623C144.923 149.623 144.585 149.667 144.267 149.752C143.947 149.838 143.66 149.971 143.413 150.148C143.166 150.324 142.963 150.555 142.82 150.823C142.675 151.092 142.602 151.41 142.602 151.765C142.602 152.127 142.664 152.442 142.789 152.699C142.913 152.957 143.093 153.173 143.322 153.338C143.549 153.504 143.83 153.626 144.155 153.699C144.476 153.773 144.84 153.81 145.238 153.81C145.657 153.81 146.075 153.776 146.48 153.706C146.881 153.638 147.374 153.538 147.51 153.507C147.606 153.484 147.702 153.46 147.797 153.434C147.898 153.409 147.89 153.3 147.89 153.3L147.888 149.56C147.888 148.74 147.669 148.132 147.238 147.755C146.809 147.379 146.177 147.189 145.36 147.189C145.053 147.189 144.56 147.231 144.264 147.291C144.264 147.291 143.371 147.464 143.003 147.751C143.003 147.751 142.922 147.801 142.966 147.914L143.256 148.692C143.292 148.792 143.39 148.758 143.39 148.758C143.39 148.758 143.421 148.746 143.457 148.725C144.244 148.297 145.239 148.31 145.239 148.31C145.681 148.31 146.021 148.398 146.25 148.574C146.473 148.745 146.587 149.003 146.587 149.548V149.721C146.235 149.671 145.912 149.642 145.912 149.642ZM178.898 147.534C178.929 147.442 178.864 147.398 178.837 147.388C178.767 147.361 178.42 147.287 178.151 147.27C177.638 147.239 177.352 147.325 177.097 147.44C176.844 147.554 176.562 147.739 176.405 147.95V147.452C176.405 147.383 176.356 147.327 176.288 147.327H175.239C175.171 147.327 175.122 147.383 175.122 147.452V153.552C175.122 153.62 175.178 153.677 175.246 153.677H176.321C176.354 153.676 176.385 153.663 176.408 153.64C176.432 153.616 176.445 153.585 176.444 153.552V150.504C176.444 150.095 176.49 149.687 176.58 149.431C176.669 149.178 176.789 148.975 176.938 148.829C177.088 148.684 177.258 148.583 177.444 148.525C177.633 148.467 177.844 148.448 177.992 148.448C178.206 148.448 178.442 148.503 178.442 148.503C178.52 148.512 178.564 148.464 178.59 148.393C178.661 148.206 178.86 147.646 178.898 147.534Z" fill="white"/>
<path d="M168.813 144.713C168.682 144.673 168.563 144.646 168.409 144.616C168.252 144.588 168.065 144.574 167.853 144.574C167.113 144.574 166.53 144.783 166.121 145.195C165.714 145.605 165.437 146.23 165.299 147.051L165.248 147.327H164.32C164.32 147.327 164.207 147.323 164.183 147.446L164.031 148.297C164.02 148.378 164.056 148.429 164.164 148.429H165.068L164.151 153.547C164.08 153.959 163.997 154.298 163.906 154.555C163.816 154.808 163.729 154.998 163.62 155.137C163.516 155.269 163.417 155.368 163.246 155.425C163.106 155.472 162.943 155.495 162.765 155.495C162.666 155.495 162.535 155.478 162.437 155.458C162.341 155.439 162.289 155.418 162.216 155.387C162.216 155.387 162.111 155.347 162.068 155.452C162.035 155.54 161.794 156.202 161.765 156.284C161.737 156.365 161.777 156.428 161.828 156.447C161.949 156.49 162.038 156.518 162.202 156.557C162.429 156.61 162.621 156.613 162.801 156.613C163.177 156.613 163.521 156.56 163.805 156.457C164.091 156.354 164.34 156.174 164.561 155.931C164.799 155.667 164.949 155.392 165.092 155.015C165.233 154.643 165.355 154.181 165.451 153.642L166.373 148.429H167.72C167.72 148.429 167.833 148.433 167.857 148.309L168.009 147.459C168.019 147.378 167.985 147.327 167.876 147.327H166.568C166.575 147.298 166.634 146.838 166.784 146.405C166.849 146.221 166.969 146.071 167.071 145.968C167.171 145.868 167.287 145.797 167.414 145.755C167.543 145.713 167.691 145.693 167.853 145.693C167.975 145.693 168.097 145.707 168.188 145.726C168.315 145.753 168.364 145.767 168.398 145.777C168.531 145.818 168.549 145.778 168.575 145.714L168.888 144.856C168.92 144.763 168.841 144.724 168.813 144.713ZM150.542 153.558C150.542 153.626 150.493 153.681 150.425 153.681H149.34C149.272 153.681 149.224 153.626 149.224 153.558V144.83C149.224 144.761 149.272 144.706 149.34 144.706H150.425C150.493 144.706 150.542 144.761 150.542 144.83V153.558Z" fill="white"/>
<defs>
<filter id="filter0_d_1_545" x="0.829224" y="0.28125" width="323" height="323" filterUnits="userSpaceOnUse" color-interpolation-filters="sRGB">
<feFlood flood-opacity="0" result="BackgroundImageFix"/>
<feColorMatrix in="SourceAlpha" type="matrix" values="0 0 0 0 0 0 0 0 0 0 0 0 0 0 0 0 0 0 127 0" result="hardAlpha"/>
<feOffset dy="10"/>
<feGaussianBlur stdDeviation="42"/>
<feColorMatrix type="matrix" values="0 0 0 0 0.278431 0 0 0 0 0.32549 0 0 0 0 0.419608 0 0 0 0.1 0"/>
<feBlend mode="normal" in2="BackgroundImageFix" result="effect1_dropShadow_1_545"/>
<feBlend mode="normal" in="SourceGraphic" in2="effect1_dropShadow_1_545" result="shape"/>
</filter>
</defs>
</svg>
