<svg width="231" height="231" viewBox="0 0 231 231" fill="none" xmlns="http://www.w3.org/2000/svg">
<g filter="url(#filter0_d_1_538)">
<rect x="84.1691" y="74" width="62.8097" height="62.8097" rx="31.4048" fill="white"/>
</g>
<path d="M113.993 92.6774L102.796 97.3104C102.174 97.5681 102.18 98.4525 102.807 98.7008L114.05 103.159C115.038 103.551 116.138 103.551 117.126 103.159L128.37 98.7008C128.996 98.4525 129.003 97.5681 128.38 97.3104L117.184 92.6774C116.162 92.2547 115.014 92.2547 113.993 92.6774Z" fill="#FFBF00"/>
<path d="M116.607 105.595V116.734C116.607 117.264 117.141 117.626 117.633 117.431L130.162 112.568C130.448 112.455 130.635 112.178 130.635 111.871V100.732C130.635 100.203 130.101 99.8398 129.609 100.035L117.08 104.898C116.794 105.011 116.607 105.288 116.607 105.595Z" fill="#26B5F8"/>
<path d="M113.672 106.174L109.954 107.969L109.576 108.151L101.727 111.912C101.23 112.152 100.595 111.79 100.595 111.237V100.783C100.595 100.583 100.697 100.41 100.835 100.28C100.892 100.222 100.957 100.175 101.025 100.138C101.212 100.025 101.48 99.995 101.707 100.085L113.61 104.801C114.215 105.041 114.262 105.889 113.672 106.174Z" fill="#ED3049"/>
<path d="M113.666 106.174L109.948 107.969L100.829 100.28C100.887 100.222 100.952 100.175 101.019 100.138C101.207 100.025 101.474 99.995 101.702 100.085L113.604 104.801C114.209 105.041 114.257 105.889 113.666 106.174Z" fill="black" fill-opacity="0.25"/>
<defs>
<filter id="filter0_d_1_538" x="0.169067" y="0" width="230.81" height="230.81" filterUnits="userSpaceOnUse" color-interpolation-filters="sRGB">
<feFlood flood-opacity="0" result="BackgroundImageFix"/>
<feColorMatrix in="SourceAlpha" type="matrix" values="0 0 0 0 0 0 0 0 0 0 0 0 0 0 0 0 0 0 127 0" result="hardAlpha"/>
<feOffset dy="10"/>
<feGaussianBlur stdDeviation="42"/>
<feColorMatrix type="matrix" values="0 0 0 0 0.419608 0 0 0 0 0.482353 0 0 0 0 0.611765 0 0 0 0.2 0"/>
<feBlend mode="normal" in2="BackgroundImageFix" result="effect1_dropShadow_1_538"/>
<feBlend mode="normal" in="SourceGraphic" in2="effect1_dropShadow_1_538" result="shape"/>
</filter>
</defs>
</svg>
