<svg width="262" height="261" viewBox="0 0 262 261" fill="none" xmlns="http://www.w3.org/2000/svg">
<g opacity="0.1" filter="url(#filter0_d_1_580)">
<rect x="84.1691" y="74" width="92.9909" height="92.9909" rx="46.4955" fill="#55ACEE"/>
</g>
<path d="M130.318 114.849L130.391 116.067L129.161 115.918C124.683 115.346 120.77 113.409 117.449 110.154L115.825 108.54L115.406 109.732C114.521 112.39 115.086 115.197 116.932 117.085C117.916 118.129 117.695 118.278 115.997 117.657C115.406 117.458 114.89 117.309 114.84 117.383C114.668 117.557 115.259 119.818 115.726 120.712C116.366 121.954 117.67 123.171 119.097 123.892L120.303 124.463L118.876 124.488C117.498 124.488 117.449 124.513 117.596 125.034C118.088 126.649 120.032 128.363 122.198 129.108L123.723 129.63L122.394 130.425C120.426 131.568 118.113 132.214 115.8 132.263C114.693 132.288 113.782 132.387 113.782 132.462C113.782 132.71 116.784 134.101 118.531 134.648C123.772 136.263 129.998 135.567 134.673 132.81C137.995 130.847 141.316 126.947 142.867 123.171C143.703 121.159 144.54 117.483 144.54 115.719C144.54 114.576 144.614 114.427 145.992 113.061C146.804 112.266 147.566 111.397 147.714 111.148C147.96 110.676 147.935 110.676 146.68 111.098C144.589 111.844 144.294 111.744 145.327 110.626C146.09 109.832 147 108.391 147 107.968C147 107.894 146.631 108.018 146.213 108.242C145.77 108.49 144.786 108.863 144.048 109.086L142.719 109.509L141.513 108.689C140.849 108.242 139.914 107.745 139.422 107.596C138.167 107.248 136.248 107.298 135.116 107.695C132.04 108.813 130.096 111.695 130.318 114.849Z" fill="#55ACEE"/>
<defs>
<filter id="filter0_d_1_580" x="0.169067" y="0" width="260.991" height="260.991" filterUnits="userSpaceOnUse" color-interpolation-filters="sRGB">
<feFlood flood-opacity="0" result="BackgroundImageFix"/>
<feColorMatrix in="SourceAlpha" type="matrix" values="0 0 0 0 0 0 0 0 0 0 0 0 0 0 0 0 0 0 127 0" result="hardAlpha"/>
<feOffset dy="10"/>
<feGaussianBlur stdDeviation="42"/>
<feColorMatrix type="matrix" values="0 0 0 0 0.419608 0 0 0 0 0.482353 0 0 0 0 0.611765 0 0 0 0.1 0"/>
<feBlend mode="normal" in2="BackgroundImageFix" result="effect1_dropShadow_1_580"/>
<feBlend mode="normal" in="SourceGraphic" in2="effect1_dropShadow_1_580" result="shape"/>
</filter>
</defs>
</svg>
