<svg width="15" height="15" viewBox="0 0 15 15" fill="none" xmlns="http://www.w3.org/2000/svg">
<path fill-rule="evenodd" clip-rule="evenodd" d="M11.096 3.20322C11.5587 3.20322 11.9443 3.5888 11.9443 4.05148C11.9443 4.51417 11.5587 4.89974 11.096 4.89974C10.6334 4.89974 10.2478 4.51417 10.2478 4.05148C10.2478 3.5888 10.6334 3.20322 11.096 3.20322ZM7.47167 4.1286C9.39953 4.1286 10.9418 5.67089 10.9418 7.59875C10.9418 9.52661 9.39953 11.0689 7.47167 11.0689C5.54381 11.0689 4.00152 9.52661 4.00152 7.59875C4.00152 5.67089 5.54381 4.1286 7.47167 4.1286ZM7.47167 5.90223C6.5463 5.90223 5.77515 6.67337 5.77515 7.59875C5.77515 8.52412 6.5463 9.29526 7.47167 9.29526C8.39704 9.29526 9.16819 8.52412 9.16819 7.59875C9.16819 6.67337 8.39704 5.90223 7.47167 5.90223ZM10.9418 14.539H4.00152C2.22789 14.539 0.531372 12.8425 0.531372 11.0689V4.1286C0.531372 2.35496 2.22789 0.658447 4.00152 0.658447H10.9418C12.7155 0.658447 14.412 2.35496 14.412 4.1286V11.0689C14.412 12.8425 12.7155 14.539 10.9418 14.539ZM4.00152 2.35496C3.15326 2.35496 2.305 3.28034 2.305 4.05148V10.9918C2.305 11.84 3.23038 12.6883 4.00152 12.6883H10.9418C11.7901 12.6883 12.6383 11.7629 12.6383 10.9918V4.05148C12.6383 3.20322 11.713 2.35496 10.9418 2.35496H4.00152Z" fill="white"/>
</svg>
