<svg width="117" height="116" viewBox="0 0 117 116" fill="none" xmlns="http://www.w3.org/2000/svg">
<path opacity="0.1" d="M58.0421 116C90.0746 116 116.042 90.0325 116.042 58C116.042 25.9675 90.0746 0 58.0421 0C26.0096 0 0.0421143 25.9675 0.0421143 58C0.0421143 90.0325 26.0096 116 58.0421 116Z" fill="#25D366"/>
<path fill-rule="evenodd" clip-rule="evenodd" d="M59.1023 82.3332H59.0915C54.7288 82.3317 50.4421 81.2371 46.6348 79.1604L32.8163 82.7852L36.5143 69.2776C34.2332 65.3244 33.0329 60.8402 33.0348 56.2459C33.0405 41.8737 44.7342 30.1807 59.102 30.1807C66.0752 30.1837 72.6201 32.8983 77.5415 37.8255C82.4629 42.7525 85.1718 49.3016 85.1691 56.2665C85.1633 70.6355 73.4743 82.3273 59.1023 82.3332ZM47.2729 74.4409L48.064 74.9104C51.3905 76.8844 55.2036 77.9289 59.0914 77.9304H59.1001C71.0417 77.9304 80.7609 68.211 80.7657 56.2645C80.7679 50.4753 78.5165 45.032 74.426 40.9367C70.3354 36.8414 64.8956 34.585 59.1087 34.583C47.1579 34.583 37.4385 44.3014 37.4338 56.247C37.4321 60.3408 38.5776 64.3277 40.7464 67.7772L41.2615 68.5969L39.0728 76.5919L47.2729 74.4409ZM71.3439 61.8796C71.7981 62.0991 72.1049 62.2474 72.2359 62.466C72.3986 62.7376 72.3986 64.0417 71.8562 65.5634C71.3132 67.0847 68.7111 68.4733 67.4597 68.6602C66.3376 68.828 64.9176 68.898 63.3573 68.4021C62.4113 68.102 61.1982 67.7012 59.6443 67.0301C53.5382 64.3936 49.4118 58.4755 48.6319 57.357C48.5773 57.2786 48.5391 57.2238 48.5177 57.1954L48.5125 57.1884C48.1678 56.7285 45.8582 53.6469 45.8582 50.4577C45.8582 47.4575 47.332 45.8849 48.0103 45.1611C48.0568 45.1115 48.0995 45.0659 48.1378 45.0241C48.7348 44.372 49.4405 44.209 49.8747 44.209C50.3088 44.209 50.7435 44.213 51.123 44.2321C51.1698 44.2344 51.2185 44.2341 51.2689 44.2338C51.6484 44.2316 52.1216 44.2288 52.5884 45.3501C52.768 45.7817 53.0308 46.4214 53.3079 47.0961C53.8684 48.4606 54.4876 49.9681 54.5966 50.1863C54.7595 50.5123 54.868 50.8925 54.6509 51.3274C54.6183 51.3926 54.5881 51.4542 54.5593 51.513C54.3963 51.8459 54.2763 52.0907 53.9996 52.4139C53.8908 52.5409 53.7783 52.6779 53.6658 52.8149C53.4417 53.0878 53.2177 53.3607 53.0226 53.555C52.6965 53.8798 52.3571 54.2322 52.737 54.8843C53.1169 55.5363 54.4241 57.6691 56.3604 59.3963C58.4418 61.2528 60.2508 62.0375 61.1677 62.4352C61.3468 62.5129 61.4918 62.5758 61.5982 62.629C62.2493 62.9552 62.6293 62.9006 63.0092 62.466C63.3892 62.0314 64.6374 60.5641 65.0715 59.9122C65.5057 59.2603 65.9401 59.3689 66.537 59.5862C67.1341 59.8037 70.3363 61.3792 70.9876 61.7052C71.1148 61.7689 71.2337 61.8263 71.3439 61.8796Z" fill="#25D366"/>
</svg>
