<svg width="686" height="465" viewBox="0 0 686 465" fill="none" xmlns="http://www.w3.org/2000/svg">
<g filter="url(#filter0_d_1_632)">
<g clip-path="url(#clip0_1_632)">
<path d="M497.396 371.772H85.5558C79.298 371.772 73.8224 366.675 73.8224 360.01V114.571C73.8224 108.298 78.9069 102.809 85.5558 102.809H497.396C503.654 102.809 509.129 107.906 509.129 114.571V360.402C509.129 366.675 504.045 371.772 497.396 371.772Z" fill="#6B6A98"/>
<path d="M477.453 352.948H105.506C99.6394 352.948 94.9461 348.635 94.9461 342.754V131.818C94.9461 126.329 99.6394 121.624 105.506 121.624H477.453C483.319 121.624 488.013 125.937 488.013 131.818V342.754C488.013 348.243 483.319 352.948 477.453 352.948Z" fill="#D5E5FB"/>
<path d="M270.944 207.493L320.615 236.507L270.944 265.128V207.493Z" fill="#4C70F0"/>
<path d="M94.161 321.585C82.4276 320.016 73.4321 298.452 81.6454 285.514C89.8587 272.183 94.161 268.262 87.5121 255.324C80.8632 242.385 60.9165 232.191 67.1743 215.724C73.4321 199.257 92.9876 198.865 88.2943 183.574C83.601 168.675 64.4365 162.794 73.8232 139.27C82.4276 118.098 101.592 129.076 101.592 104.375C101.592 83.595 71.8676 62.815 98.0721 47.5241C119.583 34.9777 133.663 68.3041 133.272 86.7316C132.881 118.882 108.241 127.507 117.628 147.503C122.321 157.697 140.703 163.97 136.792 189.063C132.881 214.156 108.632 211.804 108.632 227.094C108.632 242.777 137.574 251.011 135.228 280.809C133.272 307.078 128.97 326.682 94.161 321.585Z" fill="#6CCAA8"/>
<path d="M563.104 227.493H377.717V291.794H563.104C571.708 291.794 578.357 281.992 578.357 269.837V249.449C578.357 237.295 571.708 227.493 563.104 227.493Z" fill="#0A5DC1"/>
<path d="M560.757 234.947H378.108V284.349H560.757C567.014 284.349 567.014 234.947 560.757 234.947Z" fill="white"/>
<path d="M570.538 240.834H374.982V243.579H570.538V240.834Z" fill="#DCE2F7"/>
<path d="M570.538 249.463H374.982V252.208H570.538V249.463Z" fill="#DCE2F7"/>
<path d="M570.538 258.081H374.982V260.825H570.538V258.081Z" fill="#DCE2F7"/>
<path d="M570.538 266.712H374.982V269.456H570.538V266.712Z" fill="#DCE2F7"/>
<path d="M570.538 275.335H374.982V278.08H570.538V275.335Z" fill="#DCE2F7"/>
<path d="M563.104 356.486H377.717V420.787H563.104C571.708 420.787 578.357 410.985 578.357 398.83V378.443C578.357 366.288 571.708 356.486 563.104 356.486Z" fill="#D5BA88"/>
<path d="M560.756 363.94H378.107V413.342H560.756C567.014 413.342 567.014 363.94 560.756 363.94Z" fill="white"/>
<path d="M562.865 370.06H377.351V372.662H562.865V370.06Z" fill="#DCE2F7"/>
<path d="M562.865 377.869H377.351V381.772H562.865V377.869Z" fill="#DCE2F7"/>
<path d="M562.865 386.972H377.351V389.574H562.865V386.972Z" fill="#DCE2F7"/>
<path d="M562.865 396.082H377.351V398.684H562.865V396.082Z" fill="#DCE2F7"/>
<path d="M562.865 403.89H377.351V406.492H562.865V403.89Z" fill="#DCE2F7"/>
<path d="M405.88 356.483H591.267V291.791H405.88C397.276 291.791 390.627 301.593 390.627 313.747V334.135C390.627 346.289 397.276 356.483 405.88 356.483Z" fill="#F97179"/>
<path d="M408.23 349.039H590.879V299.245H408.23C401.973 299.245 401.973 349.039 408.23 349.039Z" fill="white"/>
<path d="M594.005 340.413H398.45V343.158H594.005V340.413Z" fill="#DCE2F7"/>
<path d="M594.005 331.79H398.45V334.535H594.005V331.79Z" fill="#DCE2F7"/>
<path d="M594.005 323.158H398.45V325.903H594.005V323.158Z" fill="#DCE2F7"/>
<path d="M594.005 314.539H398.45V317.283H594.005V314.539Z" fill="#DCE2F7"/>
<path d="M594.005 305.521H398.45V308.265H594.005V305.521Z" fill="#DCE2F7"/>
<path d="M330.787 283.942L340.956 285.903L339.391 293.744L318.662 289.824C317.489 289.431 317.489 286.295 318.662 285.903L330.787 283.942Z" fill="#324FB5"/>
<path d="M371.853 292.178L382.022 291.001L382.804 298.843L362.075 301.195C360.511 301.195 359.728 298.451 360.902 297.667L371.853 292.178Z" fill="#324FB5"/>
<path d="M433.65 222.388C440.299 210.625 435.606 192.198 435.606 192.198L406.664 198.079L363.25 215.33L332.744 267.868L384.762 276.102L383.979 240.815C384.37 240.815 423.09 240.815 433.65 222.388Z" fill="#2B79E6"/>
<path d="M445.38 224.361C452.029 212.599 448.509 203.189 448.509 203.189L418.393 199.661L372.633 218.872L353.077 270.626L396.1 277.684L395.317 242.397C395.709 242.397 434.82 242.789 445.38 224.361Z" fill="#0A5DC1"/>
<path d="M426.216 84.7618C426.216 84.7618 441.861 82.0173 448.901 98.0924C450.856 102.797 450.856 106.718 450.465 109.463C450.074 111.815 447.727 113.775 445.381 113.775H436.776L426.216 84.7618Z" fill="#324FB5"/>
<path d="M449.288 203.966L397.27 202.398L405.483 176.913L392.968 134.569C392.577 129.08 398.052 124.375 404.701 124.375L445.377 125.159C452.026 125.159 457.501 130.256 456.719 135.745L441.075 177.305L449.288 203.966Z" fill="#50A5F1"/>
<path d="M394.926 128.69C388.668 136.923 389.45 173.778 388.668 175.739C387.886 177.699 377.326 208.281 377.326 208.281L387.886 209.065C387.886 209.065 400.01 180.836 400.793 176.915C401.966 172.994 406.268 137.707 405.095 134.571C402.748 128.298 397.273 125.945 394.926 128.69Z" fill="#3C8AE9"/>
<path d="M425.044 131.825C434.04 132.217 434.04 125.944 434.04 124.375L434.431 114.182C434.431 111.829 430.911 111.829 428.955 111.829H422.306C420.351 111.829 416.831 113.397 416.831 115.75V123.591C416.831 125.552 417.613 131.825 425.044 131.825Z" fill="#EEBC90"/>
<path d="M411.352 111.829C413.699 120.846 421.13 119.67 430.125 117.318C439.121 114.965 444.205 105.556 441.858 96.9298C439.512 87.9121 430.125 82.8151 421.521 85.1676C412.525 87.52 409.005 102.811 411.352 111.829Z" fill="#FFCFA4"/>
<path d="M430.128 93.3979C430.128 93.3979 430.128 99.2791 430.91 99.2791C431.693 99.2791 434.822 98.1028 436.777 100.847C439.124 103.592 436.386 106.728 433.648 107.121C430.91 107.513 432.475 114.57 439.124 113.394C445.382 112.218 448.119 97.7108 444.99 91.8296C441.862 85.9485 431.693 79.6753 428.173 79.6753C424.653 80.0674 400.013 92.6138 400.013 92.6138L430.128 93.3979Z" fill="#324FB5"/>
<path d="M387.886 209.062L377.326 208.278C377.326 208.278 378.108 216.903 383.193 217.688C389.842 218.864 387.886 209.062 387.886 209.062Z" fill="#FFCFA4"/>
<path d="M416.435 209.455L424.649 216.12C424.649 216.12 418.391 222.001 414.089 219.256C408.222 215.728 416.435 209.455 416.435 209.455Z" fill="#FFCFA4"/>
<path d="M433.258 87.9049C436.778 87.9049 444.209 77.3189 437.951 71.0457C432.084 65.1646 422.307 70.2616 421.916 76.5348C420.742 86.7287 425.436 87.5129 433.258 87.9049Z" fill="#324FB5"/>
<path d="M101.981 325.114H100.808C100.808 320.801 104.328 313.352 107.848 305.118C110.585 299.237 113.323 292.964 114.497 288.651C119.19 271.4 107.457 256.501 98.8521 245.915C94.5499 240.818 91.0299 236.505 90.2476 232.585C86.7276 220.43 94.1588 213.765 101.59 207.1C106.674 202.395 112.15 197.69 113.714 190.633C116.061 180.831 111.759 175.734 106.674 169.853C101.981 164.363 96.5054 158.09 95.7232 146.72C95.3321 139.663 99.2432 134.174 103.937 127.901C109.021 120.843 115.279 112.61 116.843 100.063C119.581 80.8515 109.021 66.7368 108.63 66.7368L109.803 65.9526C109.803 65.9526 120.754 80.4594 118.017 100.455C116.061 113.394 110.194 121.627 104.719 129.077C100.025 135.35 96.1143 140.447 96.8965 147.112C97.6788 158.09 102.763 163.971 107.457 169.46C112.541 175.342 117.234 181.223 114.888 191.417C113.323 198.474 107.457 203.571 102.372 208.276C94.941 214.941 88.2921 220.822 91.421 232.192C92.2032 235.721 95.7232 240.034 100.025 244.739C109.021 255.717 120.754 270.616 116.061 289.043C114.888 293.748 112.15 300.021 109.412 305.903C105.501 313.744 101.981 321.586 101.981 325.114Z" fill="white"/>
<path d="M121.543 420.394H87.1254L76.9565 338.058C76.9565 338.058 78.5209 316.494 107.072 318.062C128.974 318.846 131.712 338.058 131.712 338.058L121.543 420.394Z" fill="#324FB5"/>
<path d="M112.153 66.35C112.153 67.9183 110.979 69.4866 109.024 69.4866C107.459 69.4866 105.895 68.3104 105.895 66.35C105.895 64.7817 107.068 63.2134 109.024 63.2134C110.979 63.2134 112.153 64.7817 112.153 66.35Z" fill="white"/>
<path d="M371.85 292.174L382.019 290.998L382.801 275.707L370.285 273.747L371.85 292.174Z" fill="#FFCFA4"/>
<path d="M331.18 284.339L340.958 285.907L346.825 270.224L335.092 268.264L331.18 284.339Z" fill="#FFCFA4"/>
<path d="M448.119 130.633C444.599 133.77 443.426 148.669 444.599 155.726C445.772 162.392 446.555 176.506 446.555 178.859C446.555 181.603 416.439 209.441 416.439 209.441L424.652 216.106C424.652 216.106 459.461 190.621 461.026 184.348C462.59 178.075 461.417 136.123 457.897 131.81C453.986 127.889 450.075 128.673 448.119 130.633Z" fill="#3C8AE9"/>
</g>
</g>
<defs>
<filter id="filter0_d_1_632" x="-3.99988" y="0.78125" width="694" height="472" filterUnits="userSpaceOnUse" color-interpolation-filters="sRGB">
<feFlood flood-opacity="0" result="BackgroundImageFix"/>
<feColorMatrix in="SourceAlpha" type="matrix" values="0 0 0 0 0 0 0 0 0 0 0 0 0 0 0 0 0 0 127 0" result="hardAlpha"/>
<feOffset dy="4"/>
<feGaussianBlur stdDeviation="2"/>
<feComposite in2="hardAlpha" operator="out"/>
<feColorMatrix type="matrix" values="0 0 0 0 0 0 0 0 0 0 0 0 0 0 0 0 0 0 0.25 0"/>
<feBlend mode="normal" in2="BackgroundImageFix" result="effect1_dropShadow_1_632"/>
<feBlend mode="normal" in="SourceGraphic" in2="effect1_dropShadow_1_632" result="shape"/>
</filter>
<clipPath id="clip0_1_632">
<rect width="528" height="376" fill="white" transform="translate(66.0001 44.7812)"/>
</clipPath>
</defs>
</svg>
